<?xml version="1.0" encoding="UTF-8"?>
<svg width="150px" height="23px" viewBox="0 0 150 23" version="1.1" xmlns="http://www.w3.org/2000/svg" xmlns:xlink="http://www.w3.org/1999/xlink">
    <!-- Generator: Sketch 40.3 (33839) - http://www.bohemiancoding.com/sketch -->
    <title>LOGO</title>
    <desc>Created with Sketch.</desc>
    <defs></defs>
    <g id="Symbols" stroke="none" stroke-width="1" fill="none" fill-rule="evenodd">
        <g id="LOGO" fill="#FFFFFF">
            <path d="M124,22.9482 L125,22.9482 L125,0.0002 L124,0.0002 L124,22.9482 Z M149.034,9.0712 L147.02,11.2542 L147.02,9.0712 L146.354,9.0712 L146.354,13.9342 L147.02,13.9342 L147.02,11.4682 L149.264,13.9832 L150,13.8272 L147.739,11.3572 L149.877,9.0712 L149.034,9.0712 Z M144.944,13.9302 L144.944,9.0712 L144.282,9.0712 L144.282,11.0852 L141.824,11.0852 L141.824,9.0712 L141.163,9.0712 L141.163,13.9302 L141.824,13.9302 L141.824,11.6942 L144.282,11.6942 L144.282,13.9302 L144.944,13.9302 Z M135.675,13.9222 L136.366,13.9222 L136.908,12.4622 L138.886,12.4622 L139.457,13.9712 L140.11,13.8312 L138.236,9.0432 L137.574,9.0432 L135.675,13.9222 Z M137.891,9.8362 L138.664,11.8912 L137.114,11.8912 L137.891,9.8362 Z M133.205,13.9262 C134.261,13.9262 134.964,13.4372 134.964,12.4422 C134.964,11.5422 134.348,11.0402 133.32,11.0402 L132.695,11.0402 L132.695,9.6762 L134.648,9.6762 L134.549,9.0712 L132.034,9.0712 L132.034,13.9462 L133.209,13.9462 L133.205,13.9262 Z M133.283,11.6442 C133.945,11.6442 134.298,11.8622 134.298,12.4672 C134.298,13.0712 133.904,13.3462 133.242,13.3462 L132.695,13.3462 L132.695,11.6282 L133.287,11.6282 L133.283,11.6442 Z M40.323,8.4792 L40.948,8.4792 C40.993,7.9152 41.47,7.4822 42.037,7.4932 L43.599,7.4932 L43.599,16.3922 L45.732,16.3922 L45.732,7.5182 L47.241,7.5182 C47.804,7.5172 48.277,7.9432 48.334,8.5042 L48.955,8.5042 L48.955,6.5762 L40.323,6.5762 L40.323,8.4792 Z M78.04,15.3932 C79.015,15.3692 79.807,14.5992 79.861,13.6262 L79.861,13.2152 C79.863,13.1802 79.864,13.1462 79.865,13.1112 C79.878,12.1192 79.085,11.3042 78.093,11.2912 L76.264,11.2912 L76.264,15.4012 L78.04,15.3932 Z M78.812,10.2762 C80.843,10.2762 82.142,11.3812 82.142,13.1532 L82.142,13.6422 C82.142,15.2532 80.785,16.4002 78.915,16.4002 L74.098,16.4002 L74.098,8.3852 C74.158,7.7912 73.749,7.2532 73.161,7.1522 L73.161,6.5762 L76.264,6.5762 L76.264,10.3042 L78.812,10.2762 Z M85.422,6.5762 L82.302,6.5762 L82.302,7.1482 C82.926,7.2582 83.37,7.8142 83.342,8.4472 L83.342,16.3922 L85.422,16.3922 L85.422,6.5762 Z M37.4,9.8852 C37.291,8.6042 36.287,7.5802 35.008,7.4452 C33.534,7.2892 32.213,8.3582 32.057,9.8322 L32.057,12.9562 C32.056,12.9942 32.056,13.0332 32.056,13.0722 C32.084,14.5072 33.269,15.6472 34.704,15.6192 C34.725,15.6202 34.745,15.6202 34.766,15.6202 C36.226,15.6202 37.409,14.4362 37.409,12.9762 L37.4,9.8852 Z M34.704,6.4002 C37.98,6.4002 39.957,8.7432 39.957,11.2382 L39.957,11.9032 C39.957,14.4032 37.581,16.5362 34.704,16.5362 C31.633,16.5362 29.5,14.1392 29.5,11.9572 L29.5,11.1352 C29.5,9.2772 31.005,6.4002 34.704,6.4002 L34.704,6.4002 Z M69.1,9.8982 C69.046,7.5012 67.069,7.3982 67.069,7.3982 L66.658,7.3982 C65.463,7.4102 64.448,8.2762 64.249,9.4542 L64.249,13.7042 C64.401,14.6412 65.445,15.5252 66.642,15.5252 L66.847,15.5252 C68.143,15.4282 69.131,14.3242 69.083,13.0262 L69.1,9.8982 Z M67.106,6.4162 C69.811,6.4162 71.578,8.2212 71.578,11.0982 L71.578,11.7062 C71.578,14.3612 69.708,16.4952 66.95,16.5482 C65.916,16.5642 64.927,16.1252 64.245,15.3482 L64.245,20.8682 L62.112,20.8682 L62.112,8.3812 C62.124,7.7842 61.706,7.2652 61.121,7.1482 L61.121,6.5762 L64.245,6.5762 L64.245,7.6332 C64.78,6.9182 65.926,6.4002 67.122,6.4002 L67.106,6.4162 Z M117.014,14.1522 C116.206,15.0892 115.025,15.6232 113.788,15.6112 C112.119,15.6112 110.976,14.4682 110.976,13.0632 L110.976,11.4472 L118.523,11.4472 L118.523,11.4182 C118.53,8.6532 116.294,6.4062 113.529,6.4002 C110.717,6.4002 108.428,8.4142 108.428,11.2912 L108.428,11.8622 C108.428,14.5182 110.927,16.5482 113.529,16.5482 C115.274,16.5542 116.91,15.6972 117.898,14.2592 L117.014,14.1522 Z M110.976,9.9392 C110.977,8.5332 112.117,7.3942 113.522,7.3932 C114.929,7.3912 116.072,8.5312 116.073,9.9392 L116.073,10.4612 L110.976,10.4612 L110.976,9.9392 Z M59.785,15.7142 C59.054,15.7142 58.692,14.7772 58.692,14.7772 C57.163,12.0232 56.904,11.3942 56.226,11.1352 C57.644,10.2022 58.059,7.2342 59.514,7.2342 L59.514,6.5762 L57.434,6.5762 C56.719,6.5762 56.916,7.0782 55.252,9.8032 C55.023,10.2562 54.601,10.5812 54.105,10.6872 L53.168,10.6872 L53.168,6.5762 L49.995,6.5762 L49.995,7.1442 C50.611,7.2182 51.065,7.7572 51.034,8.3772 L51.034,16.3922 L53.168,16.3922 L53.168,11.6492 L53.949,11.6492 C54.573,11.6492 55.145,12.7422 55.145,12.7422 L57.068,16.3922 L59.773,16.3922 L59.785,15.7142 Z M99.775,13.4782 L99.775,6.5762 L96.705,6.5762 L96.705,7.0782 C97.314,7.2002 97.737,7.7572 97.691,8.3772 L97.691,16.3922 L99.257,16.3922 L104.399,9.5242 L104.399,16.3922 L106.492,16.3922 L106.492,6.5762 L104.93,6.5762 L99.775,13.4782 Z M86.877,6.5762 L95.509,6.5762 L95.509,8.5042 L94.884,8.5042 C94.825,7.9442 94.354,7.5192 93.791,7.5182 L92.282,7.5182 L92.282,16.3922 L90.149,16.3922 L90.149,7.4932 L88.587,7.4932 C88.019,7.4822 87.541,7.9142 87.493,8.4792 L86.869,8.4792 L86.877,6.5762 Z" id="White-LOGO"></path>
            <path d="M19.2242,12.0475 C19.2702,14.7615 17.8102,17.2775 15.4302,18.5835 L14.8922,18.8375 C14.7172,18.9195 14.5262,18.9635 14.3332,18.9655 C14.0002,18.9795 13.6862,18.8125 13.5112,18.5295 C13.3732,18.2965 13.3292,18.0205 13.3872,17.7565 C13.4492,17.4815 13.6252,17.2445 13.8722,17.1075 C15.2672,16.4575 16.1532,15.0535 16.1412,13.5145 L16.1412,9.4535 C16.1572,7.9225 15.2792,6.5225 13.8932,5.8695 C13.6382,5.7325 13.4552,5.4905 13.3912,5.2075 C13.3332,4.9435 13.3772,4.6675 13.5152,4.4355 C13.6902,4.1515 14.0042,3.9835 14.3372,3.9955 C14.5302,3.9965 14.7212,4.0395 14.8962,4.1225 L15.4222,4.3695 C17.8072,5.6755 19.2722,8.1945 19.2282,10.9135 L19.2242,12.0475 Z M9.0382,17.1035 C9.2852,17.2415 9.4612,17.4775 9.5242,17.7525 C9.5832,18.0165 9.5392,18.2935 9.4002,18.5255 C9.2252,18.8085 8.9112,18.9755 8.5782,18.9615 C8.3852,18.9585 8.1942,18.9145 8.0192,18.8335 L7.4812,18.5785 C5.1062,17.2715 3.6492,14.7585 3.6952,12.0475 L3.6952,10.8965 C3.6552,8.1795 5.1212,5.6625 7.5052,4.3565 L8.0312,4.1105 C8.2062,4.0275 8.3972,3.9845 8.5902,3.9825 C8.9232,3.9725 9.2372,4.1395 9.4132,4.4225 C9.5522,4.6545 9.5962,4.9315 9.5362,5.1955 C9.4732,5.4765 9.2922,5.7165 9.0382,5.8535 C7.6472,6.5075 6.7672,7.9165 6.7902,9.4535 L6.7902,13.5275 C6.7802,15.0555 7.6572,16.4505 9.0382,17.1035 L9.0382,17.1035 Z M11.4682,-0.0005 C5.1322,0.0025 -0.0028,5.1405 0.0002,11.4765 C0.0022,17.8125 5.1402,22.9465 11.4762,22.9445 C17.8102,22.9415 22.9442,17.8065 22.9442,11.4725 C22.9442,5.1365 17.8082,-0.0005 11.4722,-0.0005 L11.4682,-0.0005 L11.4682,-0.0005 Z" id="Fill-1"></path>
        </g>
    </g>
</svg>