<?xml version="1.0" encoding="UTF-8"?>
<svg width="24px" height="18px" viewBox="0 0 24 18" version="1.1" xmlns="http://www.w3.org/2000/svg" xmlns:xlink="http://www.w3.org/1999/xlink">
    <!-- Generator: Sketch 40.3 (33839) - http://www.bohemiancoding.com/sketch -->
    <title>Card</title>
    <desc>Created with Sketch.</desc>
    <defs></defs>
    <g id="Symbols" stroke="none" stroke-width="1" fill="none" fill-rule="evenodd">
        <g id="Card" fill="#93ACBE">
            <path d="M21.6,0 L2.4,0 C1.08,0 0,1.157 0,2.571 L0,15.429 C0,16.843 1.08,18 2.4,18 L21.6,18 C22.92,18 24,16.843 24,15.429 L24,2.571 C24,1.157 22.92,0 21.6,0 L21.6,0 Z M3,15 L22,15 L22,8 L3,8 L3,15 Z M3,5 L22,5 L22,3 L3,3 L3,5 Z M5,12 L6,12 L6,11 L5,11 L5,12 Z M11,13 L11,14 L13,14 L13,13 L14,13 L14,12 L15,12 L15,11 L13,11 L13,12 L12,12 L12,13 L11,13 Z M14,14 L15,14 L15,13 L14,13 L14,14 Z M8,14 L10,14 L10,13 L8,13 L8,14 Z M11,12 L12,12 L12,11 L10,11 L10,13 L11,13 L11,12 Z M7,13 L8,13 L8,12 L9,12 L9,11 L7,11 L7,12 L6,12 L6,13 L5,13 L5,14 L7,14 L7,13 Z"></path>
        </g>
    </g>
</svg>