<?xml version="1.0" encoding="UTF-8"?>
<svg width="25px" height="16px" viewBox="0 0 25 16" version="1.1" xmlns="http://www.w3.org/2000/svg" xmlns:xlink="http://www.w3.org/1999/xlink">
    <!-- Generator: Sketch 40.3 (33839) - http://www.bohemiancoding.com/sketch -->
    <title>Mail</title>
    <desc>Created with Sketch.</desc>
    <defs></defs>
    <g id="Symbols" stroke="none" stroke-width="1" fill="none" fill-rule="evenodd">
        <g id="Mail" fill="#93ACBE">
            <path d="M0.754000463,1.471 C1.40700046,1.826 10.4510005,6.746 10.7880005,6.929 C11.1250005,7.112 11.5610005,7.2 12.0000005,7.2 C12.4400005,7.2 12.8760005,7.112 13.2130005,6.929 C13.5490005,6.746 22.5930005,1.826 23.2470005,1.471 C23.9000005,1.116 24.5190005,0 23.3180005,0 L0.683000463,0 C-0.516999537,0 0.100000463,1.116 0.754000463,1.471 M23.4840005,3.316 C22.7450005,3.748 13.6620005,9.054 13.2090005,9.318 C12.7560005,9.582 12.4380005,9.617 12.0000005,9.617 C11.5630005,9.617 11.2450005,9.582 10.7920005,9.318 C10.3390005,9.054 1.25700046,3.748 0.517000463,3.316 C-0.00399953737,3.013 4.62629953e-07,3.369 4.62629953e-07,3.644 L4.62629953e-07,14.572 C4.62629953e-07,15.196 0.745000463,16 1.32300046,16 L22.6780005,16 C23.2560005,16 24.0000005,15.196 24.0000005,14.572 L24.0000005,3.644 C24.0000005,3.369 24.0050005,3.013 23.4840005,3.316"></path>
        </g>
    </g>
</svg>