<svg xmlns="http://www.w3.org/2000/svg" xmlns:xlink="http://www.w3.org/1999/xlink" viewBox="0 0 19 19"><defs><style>.cls-1{fill:#00bbe4;}</style><symbol id="New_Symbol_20" data-name="New Symbol 20" viewBox="0 0 26 26"><path class="cls-1" d="M13,26A13,13,0,1,1,26,13,13,13,0,0,1,13,26ZM13,1.53A11.47,11.47,0,1,0,24.47,13,11.5,11.5,0,0,0,13,1.53Z"/><path class="cls-1" d="M16.82,13.76H9.18a.76.76,0,0,1,0-1.53h7.65a.76.76,0,0,1,0,1.53Z"/><path class="cls-1" d="M13,17.59a.7.7,0,0,1-.76-.76V9.18a.76.76,0,1,1,1.53,0v7.65A.7.7,0,0,1,13,17.59Z"/></symbol></defs><title>Ресурс 5</title><g id="Слой_2" data-name="Слой 2"><g id="Layer_11" data-name="Layer 11"><use id="New_Symbol_20-3" data-name="New Symbol 20" width="26" height="26" transform="scale(0.73)" xlink:href="#New_Symbol_20"/></g></g></svg>