<svg xmlns="http://www.w3.org/2000/svg" xmlns:xlink="http://www.w3.org/1999/xlink" viewBox="0 0 48 47.6"><defs><style>.cls-1{fill:#00bbe4;}</style><symbol id="New_Symbol_147" data-name="New Symbol 147" viewBox="0 0 48 47.6"><path class="cls-1" d="M40,19.2a1.47,1.47,0,0,1-1.6-1.6,14.4,14.4,0,0,0-28.8,0A1.47,1.47,0,0,1,8,19.2a1.47,1.47,0,0,1-1.6-1.6A17.76,17.76,0,0,1,24,0,17.76,17.76,0,0,1,41.6,17.6,1.58,1.58,0,0,1,40,19.2Z"/><path class="cls-1" d="M6.4,35.8A6.32,6.32,0,0,1,0,29.4V23a6.32,6.32,0,0,1,6.4-6.4A6.32,6.32,0,0,1,12.8,23v6.4A6.44,6.44,0,0,1,6.4,35.8Zm0-16A2.94,2.94,0,0,0,3.2,23v6.4a2.94,2.94,0,0,0,3.2,3.2,2.94,2.94,0,0,0,3.2-3.2V23A2.94,2.94,0,0,0,6.4,19.8Z"/><path class="cls-1" d="M41.6,35.8a6.32,6.32,0,0,1-6.4-6.4V23A6.4,6.4,0,0,1,48,23v6.4A6.44,6.44,0,0,1,41.6,35.8Zm0-16A2.94,2.94,0,0,0,38.4,23v6.4a2.94,2.94,0,0,0,3.2,3.2,2.94,2.94,0,0,0,3.2-3.2V23A2.94,2.94,0,0,0,41.6,19.8Z"/><path class="cls-1" d="M43,34.8c-.4.4-5.8,9.6-15.4,9.6a1.6,1.6,0,0,1,0-3.2c7.6,0,12.4-8,12.4-8Z"/><path class="cls-1" d="M24.4,47.6a4.8,4.8,0,1,1,4.8-4.8A4.74,4.74,0,0,1,24.4,47.6Zm0-6.4a1.6,1.6,0,0,0,0,3.2,1.6,1.6,0,0,0,0-3.2Z"/></symbol></defs><title>Ресурс 3</title><g id="Слой_2" data-name="Слой 2"><g id="Layer_11" data-name="Layer 11"><use width="48" height="47.6" xlink:href="#New_Symbol_147"/></g></g></svg>