<?xml version="1.0" encoding="UTF-8"?>
<svg width="31px" height="24px" viewBox="0 0 31 24" version="1.1" xmlns="http://www.w3.org/2000/svg" xmlns:xlink="http://www.w3.org/1999/xlink">
    <!-- Generator: Sketch 40.3 (33839) - http://www.bohemiancoding.com/sketch -->
    <title>ico_refresh</title>
    <desc>Created with Sketch.</desc>
    <defs></defs>
    <g id="Symbols" stroke="none" stroke-width="1" fill="none" fill-rule="evenodd">
        <g id="ico_refresh" fill="#93ACBE">
            <path d="M5.25777103,11.1280653 L8.325,13.9466 C8.625,14.2466 9.125,14.2466 9.425,13.9466 C9.725,13.6466 9.725,13.1466 9.425,12.8466 L5.125,9.0466 C5.025,8.8466 4.725,8.8466 4.525,8.8466 C4.325,8.8466 4.225,8.9466 4.025,9.1466 L0.225,13.4466 C-0.075,13.7466 -0.075,14.2466 0.225,14.5466 C0.425,14.7466 0.525,14.7466 0.725,14.7466 C0.825,14.7466 1.125,14.7466 1.225,14.2466 L3.58793043,11.6751757 C3.61336364,14.112784 4.46206245,16.422394 5.8249,18.3464 C7.5249,20.7464 10.3249,22.3464 13.3249,22.8464 C14.0249,23.0464 14.5249,23.0464 15.1249,23.0464 C17.5249,23.0464 19.9249,22.2464 22.0249,20.9464 C22.4249,20.6464 22.5249,20.1464 22.2249,19.8464 C21.9249,19.4464 21.4249,19.3464 21.1249,19.6464 C19.0249,21.1464 16.3249,21.7464 13.7249,21.4464 C10.9249,21.1464 8.7249,19.7464 7.1249,17.6464 C5.79391114,15.7830156 5.17153482,13.4472228 5.25777103,11.1280653 Z M24.8974361,11.8781196 L21.9249,9.1466 C21.6249,8.8466 21.1249,8.8466 20.8249,9.1466 C20.5249,9.4466 20.5249,9.9466 20.8249,10.2466 L25.1249,14.0466 C25.3249,14.2466 25.4249,14.2466 25.6249,14.2466 C25.8249,14.2466 25.9249,14.0466 26.3249,14.2466 L30.1249,9.9466 C30.4249,9.6466 30.4249,9.1466 30.1249,8.8466 C29.8249,8.5466 29.3249,8.5466 29.0249,8.8466 L26.3638074,11.7424949 C26.4588259,9.14886487 25.6515173,6.6817898 24.1249,4.6463 C22.4249,2.2463 19.6249,0.6463 16.6249,0.1463 C13.5249,-0.3537 10.5249,0.4463 8.1249,2.2463 C7.7249,2.5463 7.6249,3.0463 7.9249,3.3463 C8.2249,3.7463 8.7249,3.8463 9.0249,3.5463 C11.1249,2.0463 13.8249,1.4463 16.4249,1.7463 C19.2249,2.0463 21.4249,3.4463 23.0249,5.5463 C24.3202129,7.3597381 24.9443916,9.62059901 24.8974361,11.8781196 Z"></path>
        </g>
    </g>
</svg>