<?xml version="1.0" encoding="UTF-8"?>
<svg width="22px" height="22px" viewBox="0 0 22 22" version="1.1" xmlns="http://www.w3.org/2000/svg" xmlns:xlink="http://www.w3.org/1999/xlink">
    <!-- Generator: Sketch 40.3 (33839) - http://www.bohemiancoding.com/sketch -->
    <defs>
      <g id="Symbols" stroke="none" stroke-width="1" fill="none" fill-rule="evenodd">
          <g fill="currentColor">
              <path d="M15.2321356,14.1685085 C16.4975069,12.6624161 17.2663,10.7298549 17.2663,8.6433 C17.2663,3.9283 13.3423,0.0003 8.6333,0.0003 C3.9243,0.0003 0.0003,3.9283 0.0003,8.6433 C0.0003,13.3573 3.9243,17.2853 8.6333,17.2853 C10.69304,17.2853 12.6025913,16.5337829 14.0992647,15.2936889 L20.6021,21.8041 C20.7001,22.0001 20.9951,22.0001 21.1901,22.0001 C21.2881,22.0001 21.5831,22.0001 21.7791,21.8041 C22.0741,21.5091 22.0741,21.0181 21.7791,20.7231 L15.2321356,14.1685085 Z M8.6333,1.5713 C4.7093,1.5713 1.5703,4.7143 1.5703,8.6433 C1.5703,12.5713 4.7093,15.7143 8.6333,15.7143 C12.5573,15.7143 15.6963,12.5713 15.6963,8.6433 C15.6963,4.7143 12.5573,1.5713 8.6333,1.5713 Z"></path>
          </g>
      </g>
    </defs>
    <use xlink:href="#Symbols" fill="blue"></use>
</svg>
